# xmcd CD database file
# Copyright (C) 1995 Ti Kan
#
# Track frame offsets:
#	182
#	34740
#	54342
#	89512
#	109662
#	140987
#	159187
#	178062
#
# Disc length: 2910 seconds
#
# Revision: 1
# Processed by: cddbd v1.4b41PL1 Copyright (c) Steve Scherf et al.
# Submitted via: NotifyCDPlayer(CDDB) 1.05
#
DISCID=670b5c08
DTITLE=Buddy Guy And Junior Wells - Pleading The Blues
DYEAR=1900
DGENRE=
TTITLE0=Pleading The Blues
TTITLE1=It Hurts Me Too
TTITLE2=Cut Out The Lights
TTITLE3=Quit Teasing My Baby
TTITLE4=I'll Take Care Of You
TTITLE5=Take Your Time Baby
TTITLE6=Just For my Baby
TTITLE7=I Smell Something
EXTD=
EXTT0=
EXTT1=
EXTT2=
EXTT3=
EXTT4=
EXTT5=
EXTT6=
EXTT7=
PLAYORDER=
